<svg width="102" height="112" viewBox="-30 -30 162 172" fill="none" xmlns="http://www.w3.org/2000/svg">
<path d="M84.8865 21.9175L99.9896 6.8751C102.534 4.34111 100.737 0 97.1527 0H52.5907C52.5907 0 28.7046 0 12.9857 18.9292C12.4506 19.5754 11.9256 20.2215 11.3805 20.8474C10.7243 21.6147 9.59356 22.9978 8.29122 24.9361C-0.69386 38.2623 -2.3596 55.1422 3.21317 70.2149C5.73707 77.0193 9.80561 85.1261 16.0346 90.5374L23.0914 83.3796C27.584 78.8264 28.4925 71.9513 25.6052 66.2473C23.788 62.6533 22.3645 57.7367 22.5967 51.2957C22.8289 44.8547 24.9288 38.3835 29.0276 33.3054C33.3687 27.9244 40.7991 22.5536 53.1662 22.6949L84.8865 21.9377V21.9175Z" fill="#0A0ABC"/>
<path d="M16.6306 90.0827L1.52754 105.125C-1.01655 107.659 0.780525 112 4.36446 112H48.9264C48.9264 112 72.8126 112 88.5315 93.0709C89.0665 92.4248 89.5915 91.7787 90.1366 91.1528C90.7928 90.3856 91.9236 89.0025 93.2259 87.0641C102.211 73.7379 103.877 56.8581 98.304 41.7853C95.7801 34.9809 91.7116 26.8741 85.4826 21.4629L78.4258 28.6207C73.9332 33.1738 73.0246 40.0489 75.912 45.7529C77.7292 49.3469 79.1526 54.2635 78.9204 60.7045C78.6882 67.1455 76.5884 73.6167 72.4895 78.6948C68.1484 84.0758 60.718 89.4466 48.3509 89.3053L16.6306 90.0625V90.0827Z" fill="#0A0ABC"/>
</svg>
